<svg width="30" height="24" viewBox="0 0 30 24" fill="none" xmlns="http://www.w3.org/2000/svg">
<g clip-path="url(#clip0)">
<path d="M5.98326 3.4438V0.86084H8.99582V3.4438H5.98326ZM21.0042 0.86084H23.9749V3.4438H21.0042V0.86084ZM26.9874 8.57384V3.4438H30V13.7398H26.9874V16.2868H23.9749V18.8698H26.9874V21.4528H30V23.9999H23.9749V21.4528H21.0042V18.8698H8.99582V21.4528H5.98326V23.9999H0V21.4528H3.01255V18.8698H5.98326V16.2868H3.01255V13.7398H0V3.4438H3.01255V8.57384H5.98326V6.02676H8.99582V3.4438H12.0084V6.02676H17.9916V3.4438H21.0042V6.02676H23.9749V8.57384H26.9874ZM12.0084 11.1568V8.57384H8.99582V11.1568H12.0084ZM21.0042 11.1568V8.57384H17.9916V11.1568H21.0042Z" fill="#2C12A1"/>
</g>
<defs>
<clipPath id="clip0">
<rect width="30" height="24" fill="white"/>
</clipPath>
</defs>
</svg>
