<svg width="32" height="32" viewBox="0 0 32 32" fill="none" xmlns="http://www.w3.org/2000/svg">
<path d="M26.6727 13.7025L16.672 4.61066C16.4879 4.44331 16.2481 4.35058 15.9993 4.35059C15.7505 4.35059 15.5106 4.44334 15.3266 4.6107L5.32726 13.7026C5.22418 13.7963 5.14183 13.9105 5.08547 14.0379C5.02911 14.1653 5 14.3031 5 14.4424V26.0001C5 26.2653 5.10536 26.5197 5.29289 26.7072C5.48043 26.8948 5.73478 27.0001 6 27.0001H26C26.2652 27.0001 26.5196 26.8948 26.7071 26.7072C26.8946 26.5197 27 26.2653 27 26.0001V14.4425C27 14.3031 26.9709 14.1653 26.9145 14.0379C26.8582 13.9105 26.7758 13.7963 26.6727 13.7025Z" stroke="#979797" stroke-width="2" stroke-linecap="round" stroke-linejoin="round"/>
</svg>
