<svg width="23" height="23" viewBox="0 0 23 23" fill="none" xmlns="http://www.w3.org/2000/svg">
<path d="M19.1663 3.83325H17.2497V5.74992H15.333V7.66658H13.4163V9.58325H11.4997V11.4999H9.58301V13.4166H7.66634V15.3333H5.74967V17.2499H3.83301V19.1666H5.74967V17.2499H7.66634V15.3333H9.58301V13.4166H11.4997V11.4999H13.4163V9.58325H15.333V7.66658H17.2497V5.74992H19.1663V3.83325ZM15.333 13.4166H19.1663V19.1666H13.4163V13.4166H15.333ZM17.2497 17.2499V15.3333H15.333V17.2499H17.2497ZM5.74967 3.83325H9.58301V9.58325H3.83301V3.83325H5.74967ZM7.66634 7.66658V5.74992H5.74967V7.66658H7.66634Z" fill="#2C12A1"/>
</svg>
