<svg width="31" height="29" viewBox="0 0 31 29" fill="none" xmlns="http://www.w3.org/2000/svg">
<path d="M8.20615 0V3.41233H6.38103V6.82346H4.55978V10.2358H2.73594V13.6469H0.912109V17.0592H11.8525V20.4704H10.03V23.8827H8.20615V27.2938H10.03V25.5877H11.8525V23.8827H13.6764V22.1765H15.5002V20.4692H17.324V18.7654H19.1479V17.0605H20.9704V15.3543H22.7942V13.6481H24.6181V11.9408H26.4419V10.2358H28.2644V8.52962H22.7942V6.82346H24.6181V5.11729H26.4419V3.41233H28.2644V1.70617H30.0883V0H8.20615ZM8.20615 27.2938H6.38103V29H8.20486L8.20615 27.2938ZM10.03 3.41233H22.7942V5.11729H20.9704V6.82346H19.1479V8.53083H17.324V10.2346H15.5002V11.9395H17.324V13.6457H15.5002V11.9408H13.6764V13.6469H11.8525V11.9408H10.03V13.6469H8.20615V11.9408H6.38103V10.2358H8.20486V6.82346H10.0287L10.03 3.41233ZM8.20615 10.2346V11.9395H10.03V10.2358L8.20615 10.2346ZM11.8525 11.9395H13.6764V10.2358H11.8525V11.9395ZM19.1479 11.9395H20.9704V13.6457H19.1479V11.9395Z" fill="#2C12A1"/>
</svg>
