<?xml version="1.0" standalone="no"?><!DOCTYPE svg PUBLIC "-//W3C//DTD SVG 1.1//EN" "http://www.w3.org/Graphics/SVG/1.1/DTD/svg11.dtd"><svg t="1628131159260" class="icon" viewBox="0 0 1024 1024" version="1.1" xmlns="http://www.w3.org/2000/svg" p-id="2896" width="64" height="64" xmlns:xlink="http://www.w3.org/1999/xlink"><defs><style type="text/css"></style></defs><path d="M538.838 559.768c3.078-1.877 5.939-4.054 8.862-6.144h-0.831c35.193-22.919 58.129-62.372 58.129-107.807 0-71.975-57.529-131.945-133.227-131.945-69.643 0-130.2 56.975-130.2 131.945 0 47.974 27.25 89.957 66.614 113.95-64.014 17.747-112.734 69.869-128.123 136.294h28.179c19.271-68.443 82.813-118.755 157.473-121.303h9.086c1.313 0 2.619-0.024 3.921-0.061v0.061h2.587c74.66 2.548 138.202 52.859 157.473 121.303h28.178c-15.389-66.424-64.108-118.546-128.121-136.293zM474.8 544.771c-54.503 0-99.921-44.977-99.921-98.953-3.029-56.978 42.39-101.96 99.921-101.96 54.5 0 99.919 44.982 99.919 98.958 0 56.978-45.419 101.955-99.919 101.955z" p-id="2897" fill="#2C12A1"></path></svg>