<svg width="19" height="18" viewBox="0 0 19 18" fill="none" xmlns="http://www.w3.org/2000/svg">
<g clip-path="url(#clip0)">
<path d="M3.7894 2.58273V0.645508H5.69735V2.58273H3.7894ZM13.3027 0.645508H15.1841V2.58273H13.3027V0.645508ZM17.0921 6.43026V2.58273H19V10.3047H17.0921V12.215H15.1841V14.1522H17.0921V16.0895H19V17.9998H15.1841V16.0895H13.3027V14.1522H5.69735V16.0895H3.7894V17.9998H0V16.0895H1.90795V14.1522H3.7894V12.215H1.90795V10.3047H0V2.58273H1.90795V6.43026H3.7894V4.51995H5.69735V2.58273H7.6053V4.51995H11.3947V2.58273H13.3027V4.51995H15.1841V6.43026H17.0921ZM7.6053 8.36748V6.43026H5.69735V8.36748H7.6053ZM13.3027 8.36748V6.43026H11.3947V8.36748H13.3027Z" fill="#2C12A1"/>
</g>
<defs>
<clipPath id="clip0">
<rect width="19" height="18" fill="white"/>
</clipPath>
</defs>
</svg>
