<svg width="25" height="25" viewBox="0 0 25 25" fill="none" xmlns="http://www.w3.org/2000/svg">
<path d="M23.4375 17.1875V20.3125H21.875V21.875H20.3125V23.4375H17.1875V25H7.8125V23.4375H4.6875V21.875H3.125V20.3125H1.5625V17.1875H0V7.8125H1.5625V4.6875H3.125V3.125H4.6875V1.5625H7.8125V0H17.1875V1.5625H20.3125V3.125H21.875V4.6875H23.4375V7.8125H25V17.1875H23.4375ZM14.0625 6.25H12.5V4.6875H7.8125V6.25H6.25V7.8125H7.8125V9.375H12.5V7.8125H14.0625V6.25ZM18.75 9.375H17.1875V10.9375H18.75V9.375ZM20.3125 17.1875H18.75V18.75H17.1875V20.3125H18.75V18.75H20.3125V17.1875Z" fill="#2C12A1"/>
</svg>
