<svg width="30" height="22" viewBox="0 0 30 22" fill="none" xmlns="http://www.w3.org/2000/svg">
<path d="M21.8182 0C23.9881 0 26.0692 0.862011 27.6036 2.3964C29.138 3.93079 30 6.01187 30 8.18182V13.6364C30 15.8063 29.138 17.8874 27.6036 19.4218C26.0692 20.9562 23.9881 21.8182 21.8182 21.8182H8.18182C6.01187 21.8182 3.93079 20.9562 2.3964 19.4218C0.86201 17.8874 0 15.8063 0 13.6364V8.18182C0 6.01187 0.86201 3.93079 2.3964 2.3964C3.93079 0.862011 6.01187 0 8.18182 0H21.8182ZM21.8182 2.72727H8.18182C6.7824 2.72727 5.43651 3.26514 4.42253 4.22962C3.40855 5.19411 2.80406 6.51142 2.73409 7.90909L2.72727 8.18182V13.6364C2.72727 15.0358 3.26514 16.3817 4.22962 17.3957C5.19411 18.4096 6.51142 19.0141 7.90909 19.0841L8.18182 19.0909H21.8182C23.2176 19.0909 24.5635 18.553 25.5775 17.5886C26.5914 16.6241 27.1959 15.3068 27.2659 13.9091L27.2727 13.6364V8.18182C27.2727 6.7824 26.7349 5.43651 25.7704 4.42253C24.8059 3.40855 23.4886 2.80406 22.0909 2.73409L21.8182 2.72727ZM12.2727 6.81818V9.54545H15V12.2727H12.2714L12.2727 15H9.54545L9.54409 12.2727H6.81818V9.54545H9.54545V6.81818H12.2727ZM23.1818 12.2727V15H20.4545V12.2727H23.1818ZM20.4545 6.81818V9.54545H17.7273V6.81818H20.4545Z" fill="#2C12A1"/>
</svg>
