<svg width="82" height="82" viewBox="0 0 82 82" fill="none" xmlns="http://www.w3.org/2000/svg">
<path d="M41 51.25C48.0761 51.25 53.8125 45.5136 53.8125 38.4375C53.8125 31.3614 48.0761 25.625 41 25.625C33.9239 25.625 28.1875 31.3614 28.1875 38.4375C28.1875 45.5136 33.9239 51.25 41 51.25Z" stroke="#1E1C26" stroke-opacity="0.5" stroke-width="2" stroke-miterlimit="10"/>
<path d="M20.4346 63.862C22.3648 60.067 25.3075 56.8801 28.937 54.6541C32.5665 52.4282 36.7412 51.25 40.9989 51.25C45.2566 51.25 49.4313 52.4282 53.0608 54.6541C56.6903 56.88 59.633 60.0669 61.5633 63.8619" stroke="#1E1C26" stroke-opacity="0.5" stroke-width="2" stroke-linecap="round" stroke-linejoin="round"/>
<path d="M56.375 17.9375H71.75" stroke="#1E1C26" stroke-opacity="0.5" stroke-width="2" stroke-linecap="round" stroke-linejoin="round"/>
<path d="M64.0625 10.25V25.625" stroke="#1E1C26" stroke-opacity="0.5" stroke-width="2" stroke-linecap="round" stroke-linejoin="round"/>
<path d="M71.37 36.1498C72.3879 42.5578 71.3506 49.1236 68.4069 54.9058C65.4631 60.688 60.7642 65.3896 54.9837 68.3365C49.2031 71.2835 42.6379 72.3245 36.2293 71.3102C29.8207 70.2959 23.8978 67.2784 19.3099 62.6905C14.7219 58.1025 11.7045 52.1796 10.6902 45.771C9.67591 39.3624 10.7169 32.7972 13.6638 27.0167C16.6108 21.2361 21.3124 16.5372 27.0946 13.5935C32.8768 10.6498 39.4426 9.61251 45.8506 10.6304" stroke="#1E1C26" stroke-opacity="0.5" stroke-width="2" stroke-linecap="round" stroke-linejoin="round"/>
</svg>
