<svg width="29" height="29" viewBox="0 0 29 29" fill="none" xmlns="http://www.w3.org/2000/svg">
<path d="M1.8125 10.875V12.6875H3.625V14.5H5.4375V12.6875H7.25V10.875H9.0625V9.0625H10.875V7.25H12.6875V5.4375H14.5V3.625H12.6875V1.8125H10.875V0H3.625V1.8125H1.8125V3.625H0V10.875H1.8125ZM5.4375 1.8125H9.0625V3.625H5.4375V1.8125ZM3.625 9.0625H5.4375V10.875H3.625V9.0625ZM14.5 9.0625H16.3125V7.25H14.5V9.0625ZM16.3125 14.5H18.125V9.0625H16.3125V14.5ZM16.3125 18.125H18.125V16.3125H16.3125V18.125ZM16.3125 14.5H14.5V16.3125H16.3125V14.5ZM10.875 16.3125H9.0625V18.125H14.5V16.3125H10.875ZM10.875 12.6875H9.0625V14.5H10.875V12.6875ZM12.6875 10.875H10.875V12.6875H12.6875V10.875ZM14.5 9.0625H12.6875V10.875H14.5V9.0625ZM7.25 14.5V16.3125H9.0625V14.5H7.25ZM1.8125 14.5V16.3125H3.625V14.5H1.8125ZM3.625 18.125H7.25V16.3125H3.625V18.125ZM14.5 19.9375H16.3125V18.125H14.5V19.9375ZM18.125 21.75V19.9375H16.3125V21.75H18.125ZM19.9375 23.5625V21.75H18.125V23.5625H19.9375ZM19.9375 16.3125V14.5H18.125V16.3125H19.9375ZM21.75 18.125V16.3125H19.9375V18.125H21.75ZM23.5625 19.9375V18.125H21.75V19.9375H23.5625ZM18.125 7.25V3.625H16.3125V7.25H18.125ZM16.3125 1.8125H14.5V3.625H16.3125V1.8125ZM21.75 23.5625H19.9375V25.375H21.75V23.5625ZM21.75 25.375V27.1875H23.5625V29H27.1875V27.1875H23.5625V25.375H21.75ZM25.375 19.9375H23.5625V21.75H25.375V19.9375ZM27.1875 27.1875H29V23.5625H27.1875V21.75H25.375V23.5625H27.1875V27.1875Z" fill="#2C12A1"/>
</svg>
