<svg t="1625907178552" class="icon" viewBox="0 0 1024 1024" version="1.1" xmlns="http://www.w3.org/2000/svg" p-id="10707" width="200" height="200"><path d="M426.52 425.88h-42.74v-42.74c0-23.51-19.23-42.74-42.74-42.74s-42.74 19.23-42.74 42.74v42.74h-42.74c-23.51 0-42.74 19.23-42.74 42.74s19.23 42.74 42.74 42.74h42.74v42.74c0 23.51 19.23 42.74 42.74 42.74s42.74-19.23 42.74-42.74v-42.74h42.74c23.51 0 42.74-19.23 42.74-42.74 0-23.5-19.23-42.74-42.74-42.74zM682.95 340.41c-70.81 0-128.21 57.4-128.21 128.21s57.4 128.21 128.21 128.21 128.21-57.4 128.21-128.21-57.4-128.21-128.21-128.21z m0 170.95c-23.57 0-42.74-19.17-42.74-42.74s19.17-42.74 42.74-42.74 42.74 19.17 42.74 42.74-19.17 42.74-42.74 42.74z" fill="#eeeeee" p-id="10708"></path><path d="M899.21 252.37c-1.28-22.65-20.09-40.17-42.74-40.17H554.74v-41.46c0-23.51-19.23-42.74-42.74-42.74s-42.74 19.23-42.74 42.74v41.46H167.53c-22.65 0-41.45 17.52-42.74 40.17L87.62 850.7c-1.71 24.36 17.95 45.3 42.31 45.3h184.62c16.24 0 31.2-8.98 38.47-23.51l61.54-123.94c7.27-14.53 22.22-23.51 38.47-23.51h117.96c16.24 0 31.2 8.97 38.47 23.51L671 872.49c7.27 14.53 22.22 23.51 38.47 23.51h184.62c24.36 0 44.02-20.94 42.31-45.3l-37.19-598.33zM735.95 810.52l-50-100.01c-22.22-43.59-65.82-70.94-114.97-70.94H453.02c-49.15 0-92.74 27.35-114.97 70.94l-50 100.01h-112.4l32.05-512.85h608.59l32.05 512.85H735.95z" fill="#eeeeee" p-id="10709"></path></svg>