<svg width="325" height="511" viewBox="0 0 325 511" fill="none" xmlns="http://www.w3.org/2000/svg">
<path d="M115.765 101.973L117.985 101.864L117.875 99.6441L120.095 99.5346L120.204 101.754L122.424 101.645L124.643 101.535L126.863 101.426L129.082 101.316L131.302 101.207L133.521 101.098L133.412 98.8781L133.303 96.6586L131.083 96.768L128.864 96.8774L126.644 96.9869L124.425 97.0963L122.205 97.2057L119.985 97.3151L117.766 97.4245L117.657 95.205L115.437 95.3144L115.546 97.5339L113.327 97.6434L113.436 99.8629L115.656 99.7535L115.765 101.973Z" fill="#2C12A1"/>
<path d="M118.094 104.083L120.313 103.974L120.204 101.754L117.985 101.864L118.094 104.083Z" fill="#2C12A1"/>
<path d="M120.423 106.193L122.643 106.083L122.533 103.864L120.314 103.973L120.423 106.193Z" fill="#2C12A1"/>
<path d="M117.656 95.2051L119.876 95.0957L119.767 92.8762L117.547 92.9856L117.656 95.2051Z" fill="#2C12A1"/>
<path d="M119.767 92.876L121.986 92.7666L121.877 90.5471L119.657 90.6565L119.767 92.876Z" fill="#2C12A1"/>
<path d="M39.253 306.656L41.3858 306.032L40.7618 303.899L42.8946 303.275L43.5186 305.408L45.6514 304.784L47.7842 304.16L49.917 303.536L52.0498 302.912L54.1826 302.288L56.3154 301.664L55.6914 299.531L55.0674 297.398L52.9346 298.022L50.8018 298.647L48.669 299.271L46.5362 299.895L44.4033 300.519L42.2705 301.143L40.1377 301.767L39.5137 299.634L37.3809 300.258L38.0049 302.391L35.8721 303.015L36.4961 305.147L38.629 304.523L39.253 306.656Z" fill="#2C12A1"/>
<path d="M42.0098 308.165L44.1426 307.541L43.5186 305.408L41.3857 306.032L42.0098 308.165Z" fill="#2C12A1"/>
<path d="M44.7666 309.674L46.8994 309.05L46.2754 306.917L44.1426 307.541L44.7666 309.674Z" fill="#2C12A1"/>
<path d="M39.5137 299.634L41.6465 299.01L41.0225 296.877L38.8897 297.501L39.5137 299.634Z" fill="#2C12A1"/>
<path d="M41.0225 296.877L43.1553 296.253L42.5312 294.12L40.3984 294.744L41.0225 296.877Z" fill="#2C12A1"/>
<g clip-path="url(#clip0)">
<path d="M141.123 288.266L141.204 290.404L131.361 290.778L131.28 288.639L141.123 288.266Z" fill="#2C12A1"/>
</g>
<g clip-path="url(#clip1)">
<path d="M282.264 279.076L282.757 281.159L273.172 283.428L272.679 281.345L282.264 279.076Z" fill="#2C12A1"/>
</g>
<g clip-path="url(#clip2)">
<path d="M233.266 481.869L233.637 483.977L243.338 482.269L242.967 480.161L233.266 481.869Z" fill="#2C12A1"/>
</g>
<g clip-path="url(#clip3)">
<path d="M283.195 8.67524L282.872 10.7908L273.135 9.30327L273.458 7.18774L283.195 8.67524Z" fill="#2C12A1"/>
</g>
<g clip-path="url(#clip4)">
<path d="M297.01 16.4009L296.061 18.3188L287.233 13.9487L288.183 12.0308L297.01 16.4009Z" fill="#2C12A1"/>
</g>
<g clip-path="url(#clip5)">
<path d="M306.419 29.1116L304.507 30.0738L300.079 21.2754L301.99 20.3132L306.419 29.1116Z" fill="#2C12A1"/>
</g>
<g clip-path="url(#clip6)">
<path d="M311.627 44.639L309.572 45.234L306.833 35.7723L308.889 35.1772L311.627 44.639Z" fill="#2C12A1"/>
</g>
<path d="M310.018 51.513L312.082 52.0778L309.482 61.5787L307.418 61.0139L310.018 51.513Z" fill="#2C12A1"/>
<g clip-path="url(#clip7)">
<path d="M303.868 66.7248L305.489 68.1218L299.059 75.5836L297.438 74.1865L303.868 66.7248Z" fill="#2C12A1"/>
</g>
<path d="M293.273 78.5133L294.21 80.4372L285.355 84.7511L284.418 82.8271L293.273 78.5133Z" fill="#2C12A1"/>
<path d="M279.869 85.2999L280.383 87.3772L270.822 89.7453L270.308 87.668L279.869 85.2999Z" fill="#2C12A1"/>
<g clip-path="url(#clip8)">
<path d="M263.683 90.5888L264.176 92.6713L254.591 94.9404L254.098 92.8579L263.683 90.5888Z" fill="#2C12A1"/>
</g>
<g clip-path="url(#clip9)">
<path d="M246.485 93.649L246.895 95.7493L237.228 97.6389L236.817 95.5386L246.485 93.649Z" fill="#2C12A1"/>
</g>
<g clip-path="url(#clip10)">
<path d="M228.658 96.7729L228.775 98.9097L218.94 99.4508L218.822 97.314L228.658 96.7729Z" fill="#2C12A1"/>
</g>
<g clip-path="url(#clip11)">
<path d="M210.106 98.0683L210.181 100.207L200.337 100.555L200.262 98.416L210.106 98.0683Z" fill="#2C12A1"/>
</g>
<g clip-path="url(#clip12)">
<path d="M190.365 98.4103L190.334 100.55L180.485 100.409L180.516 98.2695L190.365 98.4103Z" fill="#2C12A1"/>
</g>
<g clip-path="url(#clip13)">
<path d="M173.106 98.3681L173.181 100.507L163.337 100.855L163.262 98.7158L173.106 98.3681Z" fill="#2C12A1"/>
</g>
<g clip-path="url(#clip14)">
<path d="M38.3295 188.633L38.9865 186.596L48.3611 189.62L47.7041 191.657L38.3295 188.633Z" fill="#2C12A1"/>
</g>
<g clip-path="url(#clip15)">
<path d="M24.602 181.739L25.5515 179.821L34.3791 184.191L33.4297 186.109L24.602 181.739Z" fill="#2C12A1"/>
</g>
<g clip-path="url(#clip16)">
<path d="M14.5935 169.777L16.2967 168.481L22.2608 176.32L20.5576 177.616L14.5935 169.777Z" fill="#2C12A1"/>
</g>
<g clip-path="url(#clip17)">
<path d="M9.9849 153.501L12.0406 152.906L14.7793 162.367L12.7236 162.962L9.9849 153.501Z" fill="#2C12A1"/>
</g>
<path d="M13.0644 146.066L11.0002 145.501L13.5999 136L15.6641 136.565L13.0644 146.066Z" fill="#2C12A1"/>
<g clip-path="url(#clip18)">
<path d="M17.7446 131.415L16.1234 130.018L22.5537 122.556L24.1748 123.953L17.7446 131.415Z" fill="#2C12A1"/>
</g>
<path d="M28.3391 119.627L27.4018 117.703L36.2571 113.389L37.1943 115.313L28.3391 119.627Z" fill="#2C12A1"/>
<path d="M41.7434 112.84L41.2289 110.763L50.7902 108.395L51.3047 110.472L41.7434 112.84Z" fill="#2C12A1"/>
<g clip-path="url(#clip19)">
<path d="M57.9294 107.551L57.4364 105.468L67.0217 103.199L67.5146 105.282L57.9294 107.551Z" fill="#2C12A1"/>
</g>
<g clip-path="url(#clip20)">
<path d="M75.1277 104.491L74.7172 102.39L84.3844 100.501L84.7949 102.601L75.1277 104.491Z" fill="#2C12A1"/>
</g>
<g clip-path="url(#clip21)">
<path d="M144.384 100.071L144.308 97.9322L154.152 97.5844L154.228 99.7231L144.384 100.071Z" fill="#2C12A1"/>
</g>
<g clip-path="url(#clip22)">
<path d="M289.195 203.675L288.872 205.791L279.135 204.303L279.458 202.188L289.195 203.675Z" fill="#2C12A1"/>
</g>
<g clip-path="url(#clip23)">
<path d="M303.01 211.401L302.061 213.319L293.233 208.949L294.183 207.031L303.01 211.401Z" fill="#2C12A1"/>
</g>
<g clip-path="url(#clip24)">
<path d="M312.419 224.112L310.507 225.074L306.079 216.276L307.99 215.313L312.419 224.112Z" fill="#2C12A1"/>
</g>
<g clip-path="url(#clip25)">
<path d="M317.627 239.64L315.572 240.235L312.833 230.773L314.889 230.178L317.627 239.64Z" fill="#2C12A1"/>
</g>
<path d="M316.018 246.513L318.082 247.078L315.482 256.578L313.418 256.014L316.018 246.513Z" fill="#2C12A1"/>
<g clip-path="url(#clip26)">
<path d="M309.868 261.725L311.489 263.122L305.059 270.584L303.438 269.187L309.868 261.725Z" fill="#2C12A1"/>
</g>
<path d="M298.855 272L299.793 273.924L290.937 278.238L290 276.314L298.855 272Z" fill="#2C12A1"/>
<g clip-path="url(#clip27)">
<path d="M248.067 286.136L248.477 288.237L238.81 290.126L238.399 288.026L248.067 286.136Z" fill="#2C12A1"/>
</g>
<g clip-path="url(#clip28)">
<path d="M231.24 288.26L231.357 290.397L221.522 290.938L221.404 288.801L231.24 288.26Z" fill="#2C12A1"/>
</g>
<g clip-path="url(#clip29)">
<path d="M212.316 289.416L212.369 291.555L202.522 291.798L202.469 289.659L212.316 289.416Z" fill="#2C12A1"/>
</g>
<g clip-path="url(#clip30)">
<path d="M53.1026 385.608L53.4258 383.492L63.163 384.98L62.8398 387.095L53.1026 385.608Z" fill="#2C12A1"/>
</g>
<g clip-path="url(#clip31)">
<path d="M25.2299 374.618L26.1794 372.7L35.0071 377.07L34.0576 378.988L25.2299 374.618Z" fill="#2C12A1"/>
</g>
<g clip-path="url(#clip32)">
<path d="M11.5409 361.86L13.2193 360.532L19.3307 368.257L17.6523 369.585L11.5409 361.86Z" fill="#2C12A1"/>
</g>
<g clip-path="url(#clip33)">
<path d="M6.9849 345.5L9.04058 344.905L11.7793 354.367L9.72363 354.962L6.9849 345.5Z" fill="#2C12A1"/>
</g>
<path d="M8.5947 338.627L6.53051 338.062L9.13015 328.561L11.1943 329.126L8.5947 338.627Z" fill="#2C12A1"/>
<g clip-path="url(#clip34)">
<path d="M14.7446 323.415L13.1234 322.018L19.5537 314.556L21.1748 315.953L14.7446 323.415Z" fill="#2C12A1"/>
</g>
<path d="M25.3391 311.626L24.4018 309.702L33.2571 305.389L34.1943 307.312L25.3391 311.626Z" fill="#2C12A1"/>
<path d="M185.066 290.512L185.113 288.372L194.961 288.587L194.914 290.726L185.066 290.512Z" fill="#2C12A1"/>
<g clip-path="url(#clip35)">
<path d="M61.4763 299.712L60.9833 297.629L70.5685 295.36L71.0615 297.442L61.4763 299.712Z" fill="#2C12A1"/>
</g>
<g clip-path="url(#clip36)">
<path d="M78.0632 296.421L77.6527 294.321L87.3199 292.431L87.7305 294.531L78.0632 296.421Z" fill="#2C12A1"/>
</g>
<g clip-path="url(#clip37)">
<path d="M113.384 292.071L113.308 289.932L123.152 289.584L123.228 291.723L113.384 292.071Z" fill="#2C12A1"/>
</g>
<g clip-path="url(#clip38)">
<path d="M167.434 287.471L167.424 289.611L177.274 289.657L177.284 287.517L167.434 287.471Z" fill="#2C12A1"/>
</g>
<g clip-path="url(#clip39)">
<path d="M287.195 393.675L286.872 395.791L277.135 394.303L277.458 392.188L287.195 393.675Z" fill="#2C12A1"/>
</g>
<g clip-path="url(#clip40)">
<path d="M301.01 401.401L300.061 403.319L291.233 398.949L292.183 397.031L301.01 401.401Z" fill="#2C12A1"/>
</g>
<g clip-path="url(#clip41)">
<path d="M310.419 414.112L308.507 415.074L304.079 406.276L305.99 405.313L310.419 414.112Z" fill="#2C12A1"/>
</g>
<g clip-path="url(#clip42)">
<path d="M315.627 429.64L313.572 430.235L310.833 420.773L312.889 420.178L315.627 429.64Z" fill="#2C12A1"/>
</g>
<path d="M314.018 436.513L316.082 437.078L313.482 446.578L311.418 446.014L314.018 436.513Z" fill="#2C12A1"/>
<g clip-path="url(#clip43)">
<path d="M310.133 449.506L311.958 450.624L306.814 459.024L304.989 457.907L310.133 449.506Z" fill="#2C12A1"/>
</g>
<path d="M300.942 461.133L302.066 462.954L293.686 468.131L292.562 466.31L300.942 461.133Z" fill="#2C12A1"/>
<path d="M287.693 468.973L288.359 471.007L278.998 474.072L278.332 472.039L287.693 468.973Z" fill="#2C12A1"/>
<g clip-path="url(#clip44)">
<path d="M272.683 473.589L273.176 475.671L263.591 477.94L263.098 475.858L272.683 473.589Z" fill="#2C12A1"/>
</g>
<g clip-path="url(#clip45)">
<path d="M258.485 477.649L258.895 479.749L249.228 481.639L248.817 479.539L258.485 477.649Z" fill="#2C12A1"/>
</g>
<path d="M159.74 505.621L161.751 504.675L160.805 502.664L162.816 501.718L163.762 503.729L165.773 502.783L167.784 501.837L169.794 500.892L171.805 499.946L173.816 499L175.827 498.054L174.881 496.043L173.936 494.032L171.925 494.978L169.914 495.924L167.903 496.87L165.892 497.816L163.881 498.762L161.87 499.707L159.859 500.653L158.913 498.642L156.903 499.588L157.848 501.599L155.837 502.545L156.783 504.556L158.794 503.61L159.74 505.621Z" fill="#2C12A1"/>
<path d="M162.697 506.686L164.708 505.74L163.762 503.729L161.751 504.675L162.697 506.686Z" fill="#2C12A1"/>
<path d="M165.653 507.751L167.664 506.805L166.718 504.794L164.707 505.74L165.653 507.751Z" fill="#2C12A1"/>
<path d="M158.913 498.643L160.924 497.697L159.978 495.686L157.967 496.632L158.913 498.643Z" fill="#2C12A1"/>
<path d="M159.978 495.686L161.989 494.74L161.043 492.729L159.033 493.675L159.978 495.686Z" fill="#2C12A1"/>
<g clip-path="url(#clip46)">
<path d="M149.349 287.73L149.451 289.867L159.29 289.4L159.188 287.262L149.349 287.73Z" fill="#2C12A1"/>
</g>
<g clip-path="url(#clip47)">
<path d="M93.5295 291.239L93.6187 293.377L103.46 292.966L103.371 290.828L93.5295 291.239Z" fill="#2C12A1"/>
</g>
<path d="M103.829 97.9999L103.97 100.135L94.1407 100.783L94 98.6475L103.829 97.9999Z" fill="#2C12A1"/>
<g clip-path="url(#clip48)">
<path d="M52.1026 193.608L52.4258 191.492L62.163 192.98L61.8398 195.095L52.1026 193.608Z" fill="#2C12A1"/>
</g>
<g clip-path="url(#clip49)">
<path d="M265.265 284.076L265.758 286.159L256.173 288.428L255.68 286.345L265.265 284.076Z" fill="#2C12A1"/>
</g>
<path d="M39.0005 381.041L39.6448 379L49.0379 381.966L48.3936 384.006L39.0005 381.041Z" fill="#2C12A1"/>
<g clip-path="url(#clip50)">
<path d="M181.478 495.337L180.861 493.287L190.294 490.45L190.91 492.499L181.478 495.337Z" fill="#2C12A1"/>
</g>
<g clip-path="url(#clip51)">
<path d="M216.476 486.712L215.983 484.629L225.569 482.36L226.062 484.442L216.476 486.712Z" fill="#2C12A1"/>
</g>
<path d="M199.418 490.431L198.863 488.364L208.375 485.806L208.931 487.873L199.418 490.431Z" fill="#2C12A1"/>
<defs>
<clipPath id="clip0">
<rect width="9.86" height="18" fill="white" transform="translate(131 281.374) rotate(-2.17196)"/>
</clipPath>
<clipPath id="clip1">
<rect width="9.86" height="18" fill="white" transform="translate(270.999 274.271) rotate(-13.3185)"/>
</clipPath>
<clipPath id="clip2">
<rect width="9.86" height="18" fill="white" transform="matrix(-0.984853 0.173389 0.173389 0.984853 241.711 473)"/>
</clipPath>
<clipPath id="clip3">
<rect width="9.86" height="18" fill="white" transform="translate(274.551) rotate(8.6856)"/>
</clipPath>
<clipPath id="clip4">
<rect width="9.86" height="18" fill="white" transform="translate(291.403 5.51294) rotate(26.3374)"/>
</clipPath>
<clipPath id="clip5">
<rect width="9.86" height="18" fill="white" transform="translate(308.482 17.04) rotate(63.2812)"/>
</clipPath>
<clipPath id="clip6">
<rect width="9.86" height="18" fill="white" transform="translate(315.871 33.1511) rotate(73.8568)"/>
</clipPath>
<clipPath id="clip7">
<rect width="9.86" height="18" fill="white" transform="translate(291.927 69.4443) rotate(-49.2464)"/>
</clipPath>
<clipPath id="clip8">
<rect width="9.86" height="18" fill="white" transform="translate(252.418 85.7842) rotate(-13.3185)"/>
</clipPath>
<clipPath id="clip9">
<rect width="9.86" height="18" fill="white" transform="translate(235.418 88.4043) rotate(-11.0597)"/>
</clipPath>
<clipPath id="clip10">
<rect width="9.86" height="18" fill="white" transform="translate(218.418 90.0547) rotate(-3.14904)"/>
</clipPath>
<clipPath id="clip11">
<rect width="9.86" height="18" fill="white" transform="translate(200 91.1504) rotate(-2.02327)"/>
</clipPath>
<clipPath id="clip12">
<rect width="9.86" height="18" fill="white" transform="translate(180.614 91) rotate(0.819092)"/>
</clipPath>
<clipPath id="clip13">
<rect width="9.86" height="18" fill="white" transform="translate(163 91.4502) rotate(-2.02327)"/>
</clipPath>
<clipPath id="clip14">
<rect width="9.86" height="18" fill="white" transform="translate(45.4766 198.578) rotate(-162.123)"/>
</clipPath>
<clipPath id="clip15">
<rect width="9.86" height="18" fill="white" transform="translate(30.209 192.627) rotate(-153.663)"/>
</clipPath>
<clipPath id="clip16">
<rect width="9.86" height="18" fill="white" transform="translate(14.7744 182.022) rotate(-127.264)"/>
</clipPath>
<clipPath id="clip17">
<rect width="9.86" height="18" fill="white" transform="translate(5.74121 164.989) rotate(-106.143)"/>
</clipPath>
<clipPath id="clip18">
<rect width="9.86" height="18" fill="white" transform="translate(29.6855 128.695) rotate(130.754)"/>
</clipPath>
<clipPath id="clip19">
<rect width="9.86" height="18" fill="white" transform="translate(69.1943 112.355) rotate(166.681)"/>
</clipPath>
<clipPath id="clip20">
<rect width="9.86" height="18" fill="white" transform="translate(86.1943 109.735) rotate(168.94)"/>
</clipPath>
<clipPath id="clip21">
<rect width="9.86" height="18" fill="white" transform="translate(154.489 106.989) rotate(177.977)"/>
</clipPath>
<clipPath id="clip22">
<rect width="9.86" height="18" fill="white" transform="translate(280.551 195) rotate(8.6856)"/>
</clipPath>
<clipPath id="clip23">
<rect width="9.86" height="18" fill="white" transform="translate(297.403 200.513) rotate(26.3374)"/>
</clipPath>
<clipPath id="clip24">
<rect width="9.86" height="18" fill="white" transform="translate(314.482 212.04) rotate(63.2812)"/>
</clipPath>
<clipPath id="clip25">
<rect width="9.86" height="18" fill="white" transform="translate(321.871 228.151) rotate(73.8568)"/>
</clipPath>
<clipPath id="clip26">
<rect width="9.86" height="18" fill="white" transform="translate(297.927 264.444) rotate(-49.2464)"/>
</clipPath>
<clipPath id="clip27">
<rect width="9.86" height="18" fill="white" transform="translate(237 280.892) rotate(-11.0597)"/>
</clipPath>
<clipPath id="clip28">
<rect width="9.86" height="18" fill="white" transform="translate(221 281.542) rotate(-3.14904)"/>
</clipPath>
<clipPath id="clip29">
<rect width="9.86" height="18" fill="white" transform="translate(202.284 282.391) rotate(-1.41367)"/>
</clipPath>
<clipPath id="clip30">
<rect width="9.86" height="18" fill="white" transform="translate(61.7471 394.283) rotate(-171.314)"/>
</clipPath>
<clipPath id="clip31">
<rect width="9.86" height="18" fill="white" transform="translate(30.8369 385.506) rotate(-153.663)"/>
</clipPath>
<clipPath id="clip32">
<rect width="9.86" height="18" fill="white" transform="translate(11.9531 374.1) rotate(-128.348)"/>
</clipPath>
<clipPath id="clip33">
<rect width="9.86" height="18" fill="white" transform="translate(2.74121 356.988) rotate(-106.143)"/>
</clipPath>
<clipPath id="clip34">
<rect width="9.86" height="18" fill="white" transform="translate(26.6855 320.695) rotate(130.754)"/>
</clipPath>
<clipPath id="clip35">
<rect width="9.86" height="18" fill="white" transform="translate(72.7412 304.516) rotate(166.681)"/>
</clipPath>
<clipPath id="clip36">
<rect width="9.86" height="18" fill="white" transform="translate(89.1299 301.666) rotate(168.94)"/>
</clipPath>
<clipPath id="clip37">
<rect width="9.86" height="18" fill="white" transform="translate(123.489 298.989) rotate(177.977)"/>
</clipPath>
<clipPath id="clip38">
<rect width="9.86" height="18" fill="white" transform="matrix(-0.999989 -0.00459996 -0.00459996 0.999989 177.322 280.247)"/>
</clipPath>
<clipPath id="clip39">
<rect width="9.86" height="18" fill="white" transform="translate(278.551 385) rotate(8.6856)"/>
</clipPath>
<clipPath id="clip40">
<rect width="9.86" height="18" fill="white" transform="translate(295.403 390.513) rotate(26.3374)"/>
</clipPath>
<clipPath id="clip41">
<rect width="9.86" height="18" fill="white" transform="translate(312.482 402.04) rotate(63.2812)"/>
</clipPath>
<clipPath id="clip42">
<rect width="9.86" height="18" fill="white" transform="translate(319.871 418.151) rotate(73.8568)"/>
</clipPath>
<clipPath id="clip43">
<rect width="9.86" height="18" fill="white" transform="translate(298.786 454.114) rotate(-58.5195)"/>
</clipPath>
<clipPath id="clip44">
<rect width="9.86" height="18" fill="white" transform="translate(261.418 468.784) rotate(-13.3185)"/>
</clipPath>
<clipPath id="clip45">
<rect width="9.86" height="18" fill="white" transform="translate(247.418 472.404) rotate(-11.0597)"/>
</clipPath>
<clipPath id="clip46">
<rect width="9.86" height="18" fill="white" transform="matrix(-0.998873 0.0474644 0.0474644 0.998873 158.849 280)"/>
</clipPath>
<clipPath id="clip47">
<rect width="9.86" height="18" fill="white" transform="matrix(-0.999131 0.0416765 0.0416765 0.999131 103.073 283.564)"/>
</clipPath>
<clipPath id="clip48">
<rect width="9.86" height="18" fill="white" transform="translate(60.7471 202.283) rotate(-171.314)"/>
</clipPath>
<clipPath id="clip49">
<rect width="9.86" height="18" fill="white" transform="translate(254 279.271) rotate(-13.3185)"/>
</clipPath>
<clipPath id="clip50">
<rect width="9.86" height="18" fill="white" transform="translate(193.01 499.459) rotate(163.256)"/>
</clipPath>
<clipPath id="clip51">
<rect width="9.86" height="18" fill="white" transform="translate(227.741 491.516) rotate(166.681)"/>
</clipPath>
</defs>
</svg>
